<svg width="140" height="40" viewBox="0 0 140 40" fill="none" xmlns="http://www.w3.org/2000/svg">
<path fill-rule="evenodd" clip-rule="evenodd" d="M1.5 7.99999C3.16667 4.66666 9.3 -1.40001 20.5 0.999994C34.5 3.99999 37.5 11.5 34.5 21.5C31.5 31.5 21 40.5 1 35.5C-1.5 35 6.5 10 9.5 8.5C10.0311 7.70331 8.02337 7.89395 5.87402 8.09805C3.97662 8.27821 1.96887 8.46886 1.5 7.99999ZM11 33L18 7C21.8333 7.66667 28.6 11.7 25 22.5C21 32 17 33.5 11 33Z" fill="#FF0000"/>
<path d="M20.5 0.999994L20.4267 1.34222L20.4267 1.34222L20.5 0.999994ZM1.5 7.99999L1.18695 7.84347L1.07414 8.0691L1.25252 8.24748L1.5 7.99999ZM34.5 21.5L34.8352 21.6006L34.8352 21.6006L34.5 21.5ZM1 35.5L1.08489 35.1605L1.07681 35.1584L1.06864 35.1568L1 35.5ZM9.5 8.5L9.65653 8.81305L9.73966 8.77148L9.79122 8.69415L9.5 8.5ZM5.87402 8.09805L5.84094 7.74961L5.84094 7.74961L5.87402 8.09805ZM18 7L18.06 6.65518L17.7451 6.60042L17.662 6.90901L18 7ZM11 33L10.662 32.909L10.553 33.314L10.9709 33.3488L11 33ZM25 22.5L25.3226 22.6358L25.3278 22.6234L25.332 22.6107L25 22.5ZM20.5733 0.657763C9.19951 -1.77949 2.91654 4.38429 1.18695 7.84347L1.81305 8.15652C3.41679 4.94903 9.4005 -1.02053 20.4267 1.34222L20.5733 0.657763ZM34.8352 21.6006C36.349 16.5546 36.3722 12.0637 34.1742 8.44335C31.9777 4.8256 27.6174 2.1672 20.5733 0.657763L20.4267 1.34222C27.3826 2.83279 31.5223 5.42439 33.5758 8.80664C35.6278 12.1863 35.651 16.4454 34.1648 21.3994L34.8352 21.6006ZM0.915115 35.8396C10.9772 38.3551 18.6939 37.3589 24.2871 34.4352C29.8798 31.5117 33.3112 26.6806 34.8352 21.6006L34.1648 21.3994C32.6888 26.3194 29.3702 30.9883 23.9629 33.8148C18.5561 36.6411 11.0228 37.6449 1.08489 35.1605L0.915115 35.8396ZM9.34348 8.18695C9.09223 8.31258 8.84832 8.54125 8.61452 8.82001C8.37616 9.10422 8.12726 9.46626 7.87144 9.88915C7.35956 10.7353 6.80387 11.8519 6.23458 13.1397C5.09522 15.717 3.88778 19.0108 2.85389 22.2691C1.82032 25.5265 0.956257 28.7607 0.507264 31.2183C0.283383 32.4438 0.159127 33.4948 0.174486 34.2648C0.182107 34.6468 0.224263 34.9873 0.322241 35.2523C0.419812 35.5161 0.603611 35.7777 0.931362 35.8432L1.06864 35.1568C1.06689 35.1564 1.06624 35.1561 1.06522 35.1556C1.06392 35.1548 1.05912 35.1518 1.05135 35.1435C1.03448 35.1255 1.00713 35.0861 0.978789 35.0095C0.920761 34.8525 0.881375 34.6032 0.874347 34.2508C0.860409 33.5521 0.974435 32.5562 1.19587 31.3442C1.6375 28.9268 2.49218 25.7235 3.52111 22.4809C4.54972 19.2392 5.74853 15.9705 6.87481 13.4228C7.43832 12.1481 7.98029 11.0616 8.47037 10.2515C8.71552 9.84624 8.94367 9.51688 9.15086 9.26983C9.36263 9.01734 9.53278 8.87492 9.65653 8.81305L9.34348 8.18695ZM5.90711 8.44648C6.99223 8.34344 8.00368 8.24815 8.67908 8.27348C8.84542 8.27972 8.98205 8.29308 9.0887 8.31297C9.20002 8.33372 9.2553 8.35746 9.27569 8.37007C9.2886 8.37806 9.24499 8.35272 9.23722 8.2863C9.2316 8.23829 9.25442 8.23741 9.20879 8.30586L9.79122 8.69415C9.87837 8.56342 9.95463 8.39422 9.93248 8.20493C9.90817 7.99725 9.77805 7.85769 9.64384 7.7747C9.51712 7.69634 9.36466 7.65236 9.217 7.62483C9.06467 7.59642 8.89108 7.58094 8.70531 7.57397C7.97227 7.54648 6.90517 7.64856 5.84094 7.74961L5.90711 8.44648ZM1.25252 8.24748C1.45324 8.4482 1.76403 8.53701 2.05932 8.58409C2.37213 8.63396 2.74937 8.64828 3.15639 8.64237C3.9711 8.63055 4.96275 8.53615 5.90711 8.44648L5.84094 7.74961C4.88789 7.84011 3.92697 7.93112 3.14624 7.94245C2.75554 7.94811 2.42434 7.93344 2.16953 7.89282C1.8972 7.8494 1.7812 7.78622 1.74749 7.75251L1.25252 8.24748ZM17.662 6.90901L10.662 32.909L11.338 33.091L18.338 7.09099L17.662 6.90901ZM25.332 22.6107C27.1589 17.13 26.3722 13.3004 24.5736 10.7484C22.7872 8.21375 20.045 7.0004 18.06 6.65518L17.94 7.34482C19.7883 7.66626 22.3461 8.80291 24.0014 11.1516C25.6445 13.4829 26.4411 17.07 24.668 22.3893L25.332 22.6107ZM10.9709 33.3488C14.0038 33.6015 16.5982 33.3552 18.9441 31.7912C21.2789 30.2347 23.3127 27.4093 25.3226 22.6358L24.6774 22.3642C22.6873 27.0907 20.7211 29.7653 18.5559 31.2088C16.4018 32.6448 13.9962 32.8985 11.0291 32.6512L10.9709 33.3488Z" fill="black"/>
<path fill-rule="evenodd" clip-rule="evenodd" d="M73.9768 7.99999C75.6435 4.66666 81.7768 -1.40001 92.9768 0.999994C106.977 3.99999 109.977 11.5 106.977 21.5C103.977 31.5 93.4768 40.5 73.4768 35.5C70.9768 35 78.9768 10 81.9768 8.5C82.5079 7.70331 80.5002 7.89395 78.3508 8.09805C76.4534 8.27821 74.4457 8.46886 73.9768 7.99999ZM83.4768 33L90.4768 7C94.3101 7.66667 101.077 11.7 97.4768 22.5C93.4768 32 89.4768 33.5 83.4768 33Z" fill="#3E608C"/>
<path d="M92.9768 0.999994L92.9035 1.34222L92.9035 1.34222L92.9768 0.999994ZM73.9768 7.99999L73.6637 7.84347L73.5509 8.0691L73.7293 8.24748L73.9768 7.99999ZM106.977 21.5L107.312 21.6006L107.312 21.6006L106.977 21.5ZM73.4768 35.5L73.5617 35.1605L73.5536 35.1584L73.5454 35.1568L73.4768 35.5ZM81.9768 8.5L82.1333 8.81305L82.2165 8.77148L82.268 8.69415L81.9768 8.5ZM78.3508 8.09805L78.3177 7.74961L78.3177 7.74961L78.3508 8.09805ZM90.4768 7L90.5368 6.65518L90.2219 6.60042L90.1388 6.90901L90.4768 7ZM83.4768 33L83.1388 32.909L83.0298 33.314L83.4477 33.3488L83.4768 33ZM97.4768 22.5L97.7994 22.6358L97.8046 22.6234L97.8088 22.6107L97.4768 22.5ZM93.0501 0.657763C81.6763 -1.77949 75.3933 4.38429 73.6637 7.84347L74.2898 8.15652C75.8936 4.94903 81.8773 -1.02053 92.9035 1.34222L93.0501 0.657763ZM107.312 21.6006C108.826 16.5546 108.849 12.0637 106.651 8.44335C104.454 4.8256 100.094 2.1672 93.0501 0.657763L92.9035 1.34222C99.8594 2.83279 103.999 5.42439 106.053 8.80664C108.105 12.1863 108.128 16.4454 106.642 21.3994L107.312 21.6006ZM73.3919 35.8396C83.454 38.3551 91.1707 37.3589 96.7639 34.4352C102.357 31.5117 105.788 26.6806 107.312 21.6006L106.642 21.3994C105.166 26.3194 101.847 30.9883 96.4397 33.8148C91.0329 36.6411 83.4996 37.6449 73.5617 35.1605L73.3919 35.8396ZM81.8203 8.18695C81.569 8.31258 81.3251 8.54125 81.0913 8.82001C80.853 9.10422 80.6041 9.46626 80.3482 9.88915C79.8363 10.7353 79.2807 11.8519 78.7114 13.1397C77.572 15.717 76.3646 19.0108 75.3307 22.2691C74.2971 25.5265 73.433 28.7607 72.9841 31.2183C72.7602 32.4438 72.6359 33.4948 72.6513 34.2648C72.6589 34.6468 72.7011 34.9873 72.799 35.2523C72.8966 35.5161 73.0804 35.7777 73.4082 35.8432L73.5454 35.1568C73.5437 35.1564 73.543 35.1561 73.542 35.1556C73.5407 35.1548 73.5359 35.1518 73.5281 35.1435C73.5113 35.1255 73.4839 35.0861 73.4556 35.0095C73.3976 34.8525 73.3582 34.6032 73.3511 34.2508C73.3372 33.5521 73.4512 32.5562 73.6727 31.3442C74.1143 28.9268 74.969 25.7235 75.9979 22.4809C77.0265 19.2392 78.2253 15.9705 79.3516 13.4228C79.9151 12.1481 80.4571 11.0616 80.9472 10.2515C81.1923 9.84624 81.4205 9.51688 81.6277 9.26983C81.8394 9.01734 82.0096 8.87492 82.1333 8.81305L81.8203 8.18695ZM78.3839 8.44648C79.469 8.34344 80.4805 8.24815 81.1559 8.27348C81.3222 8.27972 81.4588 8.29308 81.5655 8.31297C81.6768 8.33372 81.7321 8.35746 81.7525 8.37007C81.7654 8.37806 81.7218 8.35272 81.714 8.2863C81.7084 8.23829 81.7312 8.23741 81.6856 8.30586L82.268 8.69415C82.3552 8.56342 82.4314 8.39422 82.4093 8.20493C82.385 7.99725 82.2548 7.85769 82.1206 7.7747C81.9939 7.69634 81.8415 7.65236 81.6938 7.62483C81.5415 7.59642 81.3679 7.58094 81.1821 7.57397C80.4491 7.54648 79.382 7.64856 78.3177 7.74961L78.3839 8.44648ZM73.7293 8.24748C73.93 8.4482 74.2408 8.53701 74.5361 8.58409C74.8489 8.63396 75.2262 8.64828 75.6332 8.64237C76.4479 8.63055 77.4395 8.53615 78.3839 8.44648L78.3177 7.74961C77.3647 7.84011 76.4038 7.93112 75.623 7.94245C75.2323 7.94811 74.9011 7.93344 74.6463 7.89282C74.374 7.8494 74.258 7.78622 74.2243 7.75251L73.7293 8.24748ZM90.1388 6.90901L83.1388 32.909L83.8148 33.091L90.8148 7.09099L90.1388 6.90901ZM97.8088 22.6107C99.6357 17.13 98.849 13.3004 97.0504 10.7484C95.264 8.21375 92.5218 7.0004 90.5368 6.65518L90.4168 7.34482C92.2651 7.66626 94.8229 8.80291 96.4782 11.1516C98.1213 13.4829 98.9179 17.07 97.1448 22.3893L97.8088 22.6107ZM83.4477 33.3488C86.4806 33.6015 89.075 33.3552 91.4209 31.7912C93.7557 30.2347 95.7895 27.4093 97.7994 22.6358L97.1542 22.3642C95.1641 27.0907 93.1979 29.7653 91.0326 31.2088C88.8786 32.6448 86.473 32.8985 83.5059 32.6512L83.4477 33.3488Z" fill="black"/>
<path d="M41.5 14C50.3 0.399978 62.5 1.19209e-07 64.5 3.49998C66.2992 6.64859 56 8.49999 51.5 12C47 15.5 44 34.5 52.5 34C61 33.5 63 24.5 62 18C61 11.5 59.5 8.99999 64.5 7.49999C69.5 5.99999 70 11.5 69.5 18C67.5 34.5 59.5 36.5 52.5 38C45.5 39.5 30.5 31 41.5 14Z" fill="#FDC556" stroke="black" stroke-width="0.7"/>
<path d="M118.5 2.49999C112.5 3.29999 113.333 7.83332 114.5 9.99999C118.5 12.5 124 5.5 127 7.5C130 9.5 123 26 121 30.5C119 35 117.5 32 116 29.5C114.5 27 112.5 26 111 27.5C108 31.5 111.5 38.5 120.5 39.5C129.5 40.5 140 9.49999 139 4.99999C138 0.499989 126 1.49999 118.5 2.49999Z" fill="#59AE49" stroke="black" stroke-width="0.7"/>
</svg>
